<svg fill="#000000" xmlns="http://www.w3.org/2000/svg"  viewBox="0 0 80 80" width="160px" height="160px"><circle cx="39" cy="37.5" r="7" fill="none" stroke="#000000" stroke-miterlimit="10" stroke-width="2"/><circle cx="40.5" cy="37" r="1.5"/><circle cx="57.5" cy="38" r="6.5" fill="none" stroke="#000000" stroke-miterlimit="10" stroke-width="2"/><circle cx="59.5" cy="37" r="1.5"/><path fill="none" stroke="#000000" stroke-linecap="round" stroke-miterlimit="10" stroke-width="2" d="M20.249,72.5 c0,0,0-12.717,0-18.37C20.249,38.587,16,37.174,16,24.457C16,13.152,24.499,7.5,34.416,7.5c12.75,0,19.834,7.772,22.667,18.37 c0.221,0.829,1.422,1.826,2.625,2.385c0.986,0.459,1.577,1.388,1.625,2.473v1.501"/><path fill="none" stroke="#000000" stroke-linecap="round" stroke-miterlimit="10" stroke-width="2" d="M61,43.5 c0,2.333,0,4.667,0,7"/><path fill="none" stroke="#000000" stroke-linecap="round" stroke-linejoin="round" stroke-miterlimit="10" stroke-width="2" d="M31,46.5c0,0,1.75,3,6,3c2.833,0,4-1,4-1"/><path fill="none" stroke="#000000" stroke-linecap="round" stroke-linejoin="round" stroke-miterlimit="10" stroke-width="2" d="M54,63.293c0.153,1.235,0.249,2.652,0.249,4.261"/><path d="M52,57.5c-0.061,0-0.13-0.01-0.2-0.02c-0.06-0.01-0.12-0.03-0.18-0.06c-0.061-0.02-0.12-0.05-0.181-0.09 c-0.05-0.04-0.1-0.08-0.149-0.12c-0.04-0.05-0.09-0.1-0.12-0.15c-0.04-0.06-0.07-0.12-0.09-0.18c-0.03-0.06-0.05-0.12-0.061-0.18 C51.01,56.63,51,56.57,51,56.5c0-0.06,0.01-0.13,0.02-0.2c0.011-0.06,0.03-0.12,0.061-0.18c0.02-0.06,0.05-0.12,0.09-0.18 c0.03-0.05,0.08-0.1,0.12-0.15c0.05-0.04,0.1-0.08,0.149-0.12c0.061-0.04,0.12-0.07,0.181-0.09c0.06-0.03,0.12-0.05,0.18-0.06 c0.33-0.07,0.67,0.04,0.91,0.27c0.04,0.05,0.08,0.1,0.12,0.15c0.04,0.06,0.069,0.12,0.09,0.18c0.03,0.06,0.05,0.12,0.06,0.18 C52.99,56.37,53,56.44,53,56.5c0,0.07-0.01,0.13-0.021,0.2c-0.01,0.06-0.029,0.12-0.06,0.18c-0.021,0.06-0.05,0.12-0.09,0.18 c-0.04,0.05-0.08,0.1-0.12,0.15C52.52,57.39,52.26,57.5,52,57.5z"/><path d="M52.359,60.06L52.359,60.06c-0.149-0.53,0.16-1.08,0.7-1.23l0,0c0.53-0.15,1.08,0.17,1.23,0.7l0,0 c0.149,0.53-0.17,1.08-0.7,1.23l0,0c-0.09,0.02-0.18,0.03-0.271,0.03l0,0C52.88,60.79,52.479,60.5,52.359,60.06z"/><path d="M54,64.29c-0.07,0-0.13,0-0.2-0.02c-0.06-0.01-0.12-0.03-0.18-0.05c-0.061-0.03-0.12-0.06-0.181-0.1 c-0.05-0.03-0.1-0.07-0.149-0.12C53.109,63.81,53,63.56,53,63.29c0-0.26,0.109-0.52,0.29-0.7c0.05-0.05,0.1-0.09,0.149-0.13 c0.061-0.03,0.12-0.06,0.181-0.09c0.06-0.02,0.12-0.04,0.18-0.06c0.13-0.02,0.27-0.02,0.39,0c0.07,0.02,0.13,0.04,0.19,0.06 c0.06,0.03,0.12,0.06,0.17,0.09c0.06,0.04,0.11,0.08,0.16,0.13c0.18,0.18,0.29,0.44,0.29,0.7c0,0.27-0.11,0.52-0.29,0.71 c-0.05,0.05-0.101,0.09-0.16,0.12c-0.05,0.04-0.11,0.07-0.17,0.1c-0.061,0.02-0.12,0.04-0.19,0.05 C54.13,64.29,54.06,64.29,54,64.29z"/><path d="M60.64,61.5c-0.27,0-0.53-0.11-0.71-0.29c-0.05-0.05-0.09-0.1-0.13-0.15c-0.03-0.06-0.06-0.12-0.09-0.18 c-0.021-0.06-0.04-0.12-0.061-0.18c-0.01-0.07-0.01-0.13-0.01-0.2c0-0.13,0.021-0.26,0.07-0.38c0.05-0.13,0.13-0.24,0.22-0.33 c0.23-0.23,0.57-0.33,0.9-0.27c0.069,0.01,0.13,0.03,0.189,0.06c0.061,0.02,0.12,0.05,0.17,0.09c0.061,0.04,0.11,0.08,0.15,0.12 c0.1,0.1,0.17,0.2,0.22,0.33c0.05,0.12,0.08,0.25,0.08,0.38c0,0.07-0.01,0.13-0.02,0.2c-0.021,0.06-0.04,0.12-0.061,0.18 c-0.029,0.06-0.06,0.12-0.09,0.18c-0.04,0.05-0.08,0.1-0.13,0.15c-0.04,0.04-0.09,0.08-0.15,0.12c-0.05,0.04-0.109,0.07-0.17,0.09 c-0.06,0.03-0.12,0.05-0.189,0.06C60.77,61.49,60.7,61.5,60.64,61.5z"/><path d="M58.729,58.28c-0.239-0.49-0.04-1.1,0.45-1.34l0,0c0.49-0.25,1.09-0.05,1.34,0.44l0,0c0.25,0.49,0.05,1.1-0.439,1.34l0,0 c-0.15,0.08-0.3,0.11-0.45,0.11l0,0C59.26,58.83,58.91,58.63,58.729,58.28z"/><path d="M58,56.5c-0.26,0-0.521-0.11-0.71-0.29c-0.09-0.1-0.16-0.21-0.21-0.33S57,55.63,57,55.5c0-0.13,0.03-0.26,0.08-0.38 c0.05-0.12,0.12-0.23,0.21-0.33c0.1-0.09,0.2-0.16,0.33-0.21c0.18-0.08,0.38-0.1,0.569-0.06c0.07,0.01,0.13,0.03,0.19,0.06 c0.06,0.02,0.12,0.05,0.17,0.09c0.06,0.04,0.11,0.08,0.16,0.12C58.89,54.98,59,55.24,59,55.5c0,0.26-0.11,0.52-0.29,0.71 c-0.05,0.04-0.101,0.08-0.16,0.12c-0.05,0.04-0.11,0.07-0.17,0.09c-0.061,0.03-0.12,0.05-0.19,0.06 C58.13,56.49,58.06,56.5,58,56.5z"/><path fill="none" stroke="#000000" stroke-linecap="round" stroke-linejoin="round" stroke-miterlimit="10" stroke-width="2" d="M61.333,66.141c0-2.288-0.289-4.151-0.697-5.641"/><path fill="none" stroke="#000000" stroke-linecap="round" stroke-linejoin="round" stroke-miterlimit="10" stroke-width="2" d="M39.791,62.5c-0.355-3.035-1.127-5.756-2.791-7"/><path fill="none" stroke="#000000" stroke-linecap="round" stroke-linejoin="round" stroke-miterlimit="10" stroke-width="2" d="M51,37.5v1c0,7.065,6.083,9.978,10.333,12.804C64.875,53.66,67,56.957,67,63.315c0,1.951-1.044,4.185-3,4.185 c-2,0-2.073-0.933-2.667-1.383v1.614h-0.018C61.221,69.598,59.896,71.5,58,71.5c-1.956,0-3.75-1.994-3.75-3.946v1.413 c0,1.951-1.585,3.533-3.542,3.533c-1.956,0-3.542-1.581-3.542-3.533c0,1.951-1.585,3.533-3.542,3.533 c-1.956,0-3.542-1.581-3.542-3.533c0-2.042-0.042-4.333-0.292-6.467"/><path fill="none" stroke="#000000" stroke-linecap="round" stroke-linejoin="round" stroke-miterlimit="10" stroke-width="2" d="M47.016,63.5c0.041,1.91,0.151,5.467,0.151,5.467"/><g><path d="M45,57.5c-0.26,0-0.521-0.11-0.71-0.29c-0.09-0.1-0.16-0.2-0.21-0.33C44.02,56.76,44,56.63,44,56.5 c0-0.26,0.109-0.52,0.29-0.71c0.38-0.37,1.04-0.37,1.42,0C45.89,55.98,46,56.24,46,56.5c0,0.13-0.03,0.26-0.08,0.38 c-0.05,0.13-0.12,0.23-0.21,0.33C45.52,57.39,45.26,57.5,45,57.5z"/><path d="M45.729,60L45.729,60c-0.12-0.53,0.21-1.07,0.75-1.2l0,0c0.54-0.12,1.07,0.21,1.2,0.75l0,0c0.13,0.54-0.21,1.07-0.75,1.2 l0,0c-0.07,0.02-0.149,0.03-0.22,0.03l0,0C46.25,60.78,45.84,60.47,45.729,60z"/><path d="M47.02,64.5c-0.14,0-0.27-0.03-0.39-0.08c-0.12-0.05-0.23-0.12-0.32-0.21c-0.09-0.1-0.17-0.2-0.22-0.33 c-0.05-0.12-0.07-0.25-0.07-0.38c0-0.26,0.101-0.52,0.29-0.71c0.09-0.09,0.2-0.16,0.32-0.21c0.189-0.08,0.39-0.1,0.58-0.06 c0.06,0.01,0.13,0.03,0.189,0.06c0.061,0.02,0.12,0.05,0.17,0.09c0.061,0.04,0.11,0.08,0.15,0.12c0.19,0.19,0.3,0.45,0.3,0.71 c0,0.13-0.029,0.26-0.08,0.38c-0.05,0.13-0.13,0.23-0.22,0.33c-0.04,0.04-0.09,0.08-0.15,0.12c-0.05,0.04-0.109,0.07-0.17,0.09 c-0.06,0.03-0.13,0.05-0.189,0.06C47.149,64.49,47.08,64.5,47.02,64.5z"/></g><g><path d="M20,31.5c-0.271,0-0.521-0.11-0.71-0.29c-0.04-0.05-0.09-0.1-0.12-0.16c-0.04-0.05-0.07-0.11-0.09-0.17 c-0.03-0.06-0.05-0.12-0.061-0.18C19.01,30.63,19,30.57,19,30.5c0-0.26,0.109-0.52,0.29-0.71c0.37-0.37,1.04-0.37,1.42,0 C20.89,29.98,21,30.24,21,30.5c0,0.26-0.11,0.52-0.29,0.71c-0.101,0.09-0.21,0.16-0.33,0.21C20.26,31.47,20.13,31.5,20,31.5z"/><path d="M19.649,27.51c-0.55-0.01-0.989-0.46-0.979-1.01l0,0c0.01-0.56,0.46-1,1.01-0.99l0,0c0.55,0.01,0.99,0.46,0.98,1.02h0.01 c-0.01,0.54-0.46,0.98-1,0.98l0,0C19.66,27.51,19.66,27.51,19.649,27.51z M19.91,23.51c-0.54-0.12-0.88-0.66-0.75-1.2l0,0 c0.12-0.54,0.659-0.87,1.199-0.75l0,0c0.54,0.13,0.87,0.66,0.75,1.2l0,0c-0.109,0.46-0.52,0.78-0.97,0.78l0,0 C20.06,23.54,19.979,23.53,19.91,23.51z M21.05,19.67c-0.49-0.26-0.67-0.87-0.41-1.36l0,0c0.26-0.48,0.87-0.67,1.351-0.41l0,0 c0.489,0.26,0.67,0.87,0.409,1.36l0,0c-0.18,0.33-0.52,0.53-0.88,0.53l0,0C21.359,19.79,21.2,19.75,21.05,19.67z M23.2,16.29 c-0.391-0.4-0.381-1.03,0.01-1.42l0,0c0.39-0.38,1.03-0.38,1.41,0.01l0,0c0.39,0.4,0.39,1.03-0.011,1.42l0,0 c-0.189,0.19-0.439,0.29-0.699,0.29l0,0C23.649,16.59,23.399,16.49,23.2,16.29z M42.16,14.25L42.16,14.25 c-0.5-0.24-0.7-0.84-0.46-1.34l0,0c0.239-0.49,0.84-0.7,1.34-0.45l0,0l0,0l0,0c0.5,0.24,0.7,0.84,0.46,1.34l0,0 c-0.181,0.35-0.53,0.56-0.9,0.56l0,0C42.45,14.36,42.3,14.32,42.16,14.25z M26.26,13.7c-0.26-0.49-0.07-1.09,0.42-1.35l0,0 c0.48-0.26,1.09-0.07,1.351,0.42l0,0c0.25,0.48,0.069,1.09-0.421,1.35l0,0c-0.149,0.08-0.31,0.11-0.47,0.11l0,0 C26.78,14.23,26.439,14.04,26.26,13.7z M38.6,12.95c-0.54-0.13-0.859-0.67-0.729-1.21l0,0c0.13-0.53,0.68-0.86,1.21-0.73l0,0 c0.54,0.13,0.859,0.68,0.729,1.21l0,0c-0.109,0.46-0.52,0.76-0.97,0.76l0,0C38.76,12.98,38.68,12.97,38.6,12.95z M29.92,12.08 c-0.12-0.54,0.22-1.08,0.76-1.2l0,0c0.53-0.12,1.07,0.22,1.19,0.76l0,0c0.12,0.54-0.221,1.07-0.761,1.19l0,0 c-0.069,0.02-0.14,0.03-0.21,0.03l0,0C30.439,12.86,30.02,12.54,29.92,12.08z M34.859,12.46c-0.56-0.01-1-0.47-0.989-1.02l0,0 c0.01-0.55,0.47-0.99,1.02-0.98l0,0c0.55,0.01,0.99,0.46,0.98,1.02l0,0c-0.011,0.54-0.45,0.98-1,0.98l0,0H34.859z"/><path d="M46,16.5c-0.13,0-0.26-0.03-0.38-0.08c-0.13-0.05-0.23-0.12-0.33-0.21C45.109,16.02,45,15.76,45,15.5 c0-0.26,0.109-0.52,0.29-0.71c0.1-0.09,0.2-0.16,0.33-0.21c0.359-0.16,0.81-0.07,1.09,0.21c0.09,0.1,0.16,0.21,0.21,0.33 C46.97,15.24,47,15.37,47,15.5c0,0.26-0.11,0.52-0.29,0.71C46.52,16.39,46.26,16.5,46,16.5z"/></g></svg>