<svg width="300" height="300" viewBox="0 0 300 300" fill="none" xmlns="http://www.w3.org/2000/svg">
<rect width="300" height="300" fill="#FF575C"/>
<path d="M221 136C215.133 138.501 202.12 143.151 197 141.738" stroke="black" stroke-width="2"/>
<path d="M122.5 165.5C121.833 174.5 119.5 193.3 115.5 196.5C111.5 199.7 105.5 215.5 103 223C103.167 228.5 105 239.7 111 240.5C117 243.667 131.4 244.8 141 224C150.6 203.2 151.333 202.667 150.5 205" stroke="black" stroke-width="2"/>
<path d="M147.5 166.5L151 205C152.667 216 159.4 239.2 173 244C181.167 243.5 194.8 235.5 184 207.5C182.333 200.833 178.8 183.7 178 168.5" stroke="black" stroke-width="2"/>
<path d="M190.5 133C193.167 135 198.7 141 199.5 149C200.5 159 203.5 177 211 182.5C218.5 188 228 203.5 227 205C227.333 209 226.6 217.9 221 221.5C217.167 225.167 207 230.2 197 221L182.5 200" stroke="black" stroke-width="2"/>
<ellipse cx="100.5" cy="101" rx="32.5" ry="33" fill="white" stroke="black" stroke-width="2"/>
<ellipse cx="200.5" cy="101" rx="32.5" ry="33" fill="white" stroke="black" stroke-width="2"/>
<path d="M97.1414 98.2143C95.3414 100.014 95.7414 103.814 97.8414 105.014C100.441 106.414 102.841 105.314 103.541 102.414C104.641 98.2143 100.141 95.2143 97.1414 98.2143Z" fill="black"/>
<path d="M197.041 98.4142C196.341 99.2142 195.941 100.914 196.141 102.214C196.341 104.014 197.041 104.514 199.341 104.514C202.941 104.514 204.941 101.814 203.341 99.2142C201.941 97.0142 198.541 96.5142 197.041 98.4142Z" fill="black"/>
<path d="M77 134C82.6897 137.573 96.6552 144.329 107 142.77" stroke="black" stroke-width="2"/>
<path d="M113 132C108.055 140.751 98.1655 159.567 98.1655 164.818C98.1655 171.381 75.658 200.664 76.1696 201.169C76.6811 201.674 66.962 219.85 79.2388 228.433C91.2792 236.851 101.235 221.87 103.281 221.87" stroke="black" stroke-width="2"/>
</svg>
