<svg width="105" height="31" viewBox="0 0 105 31" fill="none" xmlns="http://www.w3.org/2000/svg">
<path d="M37.502 23.2C36.0754 23.2 34.7887 22.8933 33.642 22.28C32.4954 21.6533 31.5954 20.7933 30.942 19.7C30.2887 18.5933 29.962 17.36 29.962 16C29.962 14.64 30.2887 13.4133 30.942 12.32C31.5954 11.2133 32.4954 10.3533 33.642 9.74C34.7887 9.11333 36.0754 8.8 37.502 8.8C38.9287 8.8 40.2154 9.11333 41.362 9.74C42.5087 10.3533 43.4087 11.2067 44.062 12.3C44.7154 13.3933 45.042 14.6267 45.042 16C45.042 17.3733 44.7154 18.6067 44.062 19.7C43.4087 20.7933 42.5087 21.6533 41.362 22.28C40.2154 22.8933 38.9287 23.2 37.502 23.2ZM37.502 20.92C38.4354 20.92 39.2754 20.7133 40.022 20.3C40.7687 19.8733 41.3554 19.2867 41.782 18.54C42.2087 17.78 42.422 16.9333 42.422 16C42.422 15.0667 42.2087 14.2267 41.782 13.48C41.3554 12.72 40.7687 12.1333 40.022 11.72C39.2754 11.2933 38.4354 11.08 37.502 11.08C36.5687 11.08 35.7287 11.2933 34.982 11.72C34.2354 12.1333 33.6487 12.72 33.222 13.48C32.7954 14.2267 32.582 15.0667 32.582 16C32.582 16.9333 32.7954 17.78 33.222 18.54C33.6487 19.2867 34.2354 19.8733 34.982 20.3C35.7287 20.7133 36.5687 20.92 37.502 20.92Z" fill="#D71E3C"/>
<path d="M6.30688 23.24C5.20021 23.24 4.12688 23.0933 3.08688 22.8C2.06021 22.4933 1.23354 22.1 0.606875 21.62L1.70688 19.18C2.30688 19.62 3.02021 19.9733 3.84688 20.24C4.67354 20.5067 5.50021 20.64 6.32688 20.64C7.24688 20.64 7.92688 20.5067 8.36688 20.24C8.80688 19.96 9.02688 19.5933 9.02688 19.14C9.02688 18.8067 8.89354 18.5333 8.62688 18.32C8.37354 18.0933 8.04021 17.9133 7.62688 17.78C7.22688 17.6467 6.68021 17.5 5.98688 17.34C4.92021 17.0867 4.04688 16.8333 3.36688 16.58C2.68688 16.3267 2.10021 15.92 1.60688 15.36C1.12688 14.8 0.886875 14.0533 0.886875 13.12C0.886875 12.3067 1.10688 11.5733 1.54688 10.92C1.98688 10.2533 2.64688 9.72667 3.52688 9.34C4.42021 8.95333 5.50688 8.76 6.78688 8.76C7.68021 8.76 8.55354 8.86667 9.40688 9.08C10.2602 9.29333 11.0069 9.6 11.6469 10L10.6469 12.46C9.35354 11.7267 8.06021 11.36 6.76688 11.36C5.86021 11.36 5.18688 11.5067 4.74688 11.8C4.32021 12.0933 4.10688 12.48 4.10688 12.96C4.10688 13.44 4.35354 13.8 4.84688 14.04C5.35354 14.2667 6.12021 14.4933 7.14688 14.72C8.21354 14.9733 9.08688 15.2267 9.76688 15.48C10.4469 15.7333 11.0269 16.1333 11.5069 16.68C12.0002 17.2267 12.2469 17.9667 12.2469 18.9C12.2469 19.7 12.0202 20.4333 11.5669 21.1C11.1269 21.7533 10.4602 22.2733 9.56688 22.66C8.67354 23.0467 7.58688 23.24 6.30688 23.24ZM27.3008 9V23H24.0608V17.26H17.7008V23H14.4608V9H17.7008V14.52H24.0608V9H27.3008Z" fill="white"/>
<path d="M64.502 23.2C63.0754 23.2 61.7887 22.8933 60.642 22.28C59.4954 21.6533 58.5954 20.7933 57.942 19.7C57.2887 18.5933 56.962 17.36 56.962 16C56.962 14.64 57.2887 13.4133 57.942 12.32C58.5954 11.2133 59.4954 10.3533 60.642 9.74C61.7887 9.11333 63.0754 8.8 64.502 8.8C65.9287 8.8 67.2154 9.11333 68.362 9.74C69.5087 10.3533 70.4087 11.2067 71.062 12.3C71.7154 13.3933 72.042 14.6267 72.042 16C72.042 17.3733 71.7154 18.6067 71.062 19.7C70.4087 20.7933 69.5087 21.6533 68.362 22.28C67.2154 22.8933 65.9287 23.2 64.502 23.2ZM64.502 20.92C65.4354 20.92 66.2754 20.7133 67.022 20.3C67.7687 19.8733 68.3554 19.2867 68.782 18.54C69.2087 17.78 69.422 16.9333 69.422 16C69.422 15.0667 69.2087 14.2267 68.782 13.48C68.3554 12.72 67.7687 12.1333 67.022 11.72C66.2754 11.2933 65.4354 11.08 64.502 11.08C63.5687 11.08 62.7287 11.2933 61.982 11.72C61.2354 12.1333 60.6487 12.72 60.222 13.48C59.7954 14.2267 59.582 15.0667 59.582 16C59.582 16.9333 59.7954 17.78 60.222 18.54C60.6487 19.2867 61.2354 19.8733 61.982 20.3C62.7287 20.7133 63.5687 20.92 64.502 20.92Z" fill="#D71E3C"/>
<path d="M86.6402 23L86.6202 14.6L82.5002 21.52H81.0402L76.9402 14.78V23H73.9002V9H76.5802L81.8202 17.7L86.9802 9H89.6402L89.6802 23H86.6402ZM103.842 20.4V23H93.0018V9H103.582V11.6H96.2218V14.64H102.722V17.16H96.2218V20.4H103.842Z" fill="white"/>
<path d="M66.5072 17.06C66.3205 17.06 66.1605 16.9967 66.0272 16.87C65.8939 16.7367 65.8272 16.57 65.8272 16.37C65.8272 16.1767 65.8939 16.0167 66.0272 15.89C66.1605 15.7567 66.3205 15.69 66.5072 15.69C66.6939 15.69 66.8505 15.7533 66.9772 15.88C67.1039 16.0067 67.1672 16.17 67.1672 16.37C67.1672 16.57 67.1005 16.7367 66.9672 16.87C66.8405 16.9967 66.6872 17.06 66.5072 17.06Z" fill="white"/>
<path d="M59.1783 3.5L55.6983 14H53.6283L51.0333 6.23L48.3933 14H46.3083L42.8283 3.5H44.8533L47.4633 11.48L50.1783 3.5H51.9783L54.6333 11.525L57.3183 3.5H59.1783Z" fill="white"/>
<path d="M50.0283 18.15H46.5483V16.5H55.4583V18.15H51.9783V27H50.0283V18.15Z" fill="white"/>
<path d="M38.4994 19.04C38.0061 19.04 37.5594 18.9267 37.1594 18.7C36.7661 18.4733 36.4561 18.16 36.2294 17.76C36.0027 17.3533 35.8894 16.8967 35.8894 16.39C35.8894 15.8833 36.0027 15.43 36.2294 15.03C36.4561 14.6233 36.7661 14.3067 37.1594 14.08C37.5594 13.8533 38.0061 13.74 38.4994 13.74C38.9927 13.74 39.4361 13.8533 39.8294 14.08C40.2294 14.3067 40.5427 14.6233 40.7694 15.03C40.9961 15.43 41.1094 15.8833 41.1094 16.39C41.1094 16.8967 40.9961 17.3533 40.7694 17.76C40.5427 18.16 40.2294 18.4733 39.8294 18.7C39.4361 18.9267 38.9927 19.04 38.4994 19.04ZM38.4994 18.59C38.8994 18.59 39.2561 18.4967 39.5694 18.31C39.8894 18.1233 40.1394 17.8633 40.3194 17.53C40.5061 17.1967 40.5994 16.8167 40.5994 16.39C40.5994 15.9633 40.5061 15.5833 40.3194 15.25C40.1394 14.9167 39.8894 14.6567 39.5694 14.47C39.2561 14.2833 38.8994 14.19 38.4994 14.19C38.0994 14.19 37.7394 14.2833 37.4194 14.47C37.1061 14.6567 36.8561 14.9167 36.6694 15.25C36.4894 15.5833 36.3994 15.9633 36.3994 16.39C36.3994 16.8167 36.4894 17.1967 36.6694 17.53C36.8561 17.8633 37.1061 18.1233 37.4194 18.31C37.7394 18.4967 38.0994 18.59 38.4994 18.59Z" fill="white"/>
<path d="M65.4994 19.04C65.0061 19.04 64.5594 18.9267 64.1594 18.7C63.7661 18.4733 63.4561 18.16 63.2294 17.76C63.0027 17.3533 62.8894 16.8967 62.8894 16.39C62.8894 15.8833 63.0027 15.43 63.2294 15.03C63.4561 14.6233 63.7661 14.3067 64.1594 14.08C64.5594 13.8533 65.0061 13.74 65.4994 13.74C65.9927 13.74 66.4361 13.8533 66.8294 14.08C67.2294 14.3067 67.5427 14.6233 67.7694 15.03C67.9961 15.43 68.1094 15.8833 68.1094 16.39C68.1094 16.8967 67.9961 17.3533 67.7694 17.76C67.5427 18.16 67.2294 18.4733 66.8294 18.7C66.4361 18.9267 65.9927 19.04 65.4994 19.04ZM65.4994 18.59C65.8994 18.59 66.2561 18.4967 66.5694 18.31C66.8894 18.1233 67.1394 17.8633 67.3194 17.53C67.5061 17.1967 67.5994 16.8167 67.5994 16.39C67.5994 15.9633 67.5061 15.5833 67.3194 15.25C67.1394 14.9167 66.8894 14.6567 66.5694 14.47C66.2561 14.2833 65.8994 14.19 65.4994 14.19C65.0994 14.19 64.7394 14.2833 64.4194 14.47C64.1061 14.6567 63.8561 14.9167 63.6694 15.25C63.4894 15.5833 63.3994 15.9633 63.3994 16.39C63.3994 16.8167 63.4894 17.1967 63.6694 17.53C63.8561 17.8633 64.1061 18.1233 64.4194 18.31C64.7394 18.4967 65.0994 18.59 65.4994 18.59Z" fill="white"/>
<path d="M39.5072 17.06C39.3205 17.06 39.1605 16.9967 39.0272 16.87C38.8939 16.7367 38.8272 16.57 38.8272 16.37C38.8272 16.1767 38.8939 16.0167 39.0272 15.89C39.1605 15.7567 39.3205 15.69 39.5072 15.69C39.6939 15.69 39.8505 15.7533 39.9772 15.88C40.1039 16.0067 40.1672 16.17 40.1672 16.37C40.1672 16.57 40.1005 16.7367 39.9672 16.87C39.8405 16.9967 39.6872 17.06 39.5072 17.06Z" fill="white"/>
<path d="M42 26.9716C49.3309 33.2808 59.0545 28.286 63 25" stroke="white" stroke-width="2"/>
</svg>
