<svg width="104" height="43" viewBox="0 0 104 43" fill="none" xmlns="http://www.w3.org/2000/svg">
<path d="M37.5216 23.16C36.1082 23.16 34.8349 22.8533 33.7016 22.24C32.5682 21.6133 31.6749 20.7533 31.0216 19.66C30.3816 18.5667 30.0616 17.3467 30.0616 16C30.0616 14.6533 30.3816 13.4333 31.0216 12.34C31.6749 11.2467 32.5682 10.3933 33.7016 9.78C34.8349 9.15333 36.1082 8.84 37.5216 8.84C38.9216 8.84 40.1882 9.15333 41.3216 9.78C42.4549 10.3933 43.3416 11.2467 43.9816 12.34C44.6216 13.42 44.9416 14.64 44.9416 16C44.9416 17.36 44.6216 18.5867 43.9816 19.68C43.3416 20.76 42.4549 21.6133 41.3216 22.24C40.1882 22.8533 38.9216 23.16 37.5216 23.16ZM37.5216 21.38C38.5482 21.38 39.4682 21.1467 40.2816 20.68C41.1082 20.2133 41.7549 19.5733 42.2216 18.76C42.7016 17.9333 42.9416 17.0133 42.9416 16C42.9416 14.9867 42.7016 14.0733 42.2216 13.26C41.7549 12.4333 41.1082 11.7867 40.2816 11.32C39.4682 10.8533 38.5482 10.62 37.5216 10.62C36.4949 10.62 35.5616 10.8533 34.7216 11.32C33.8949 11.7867 33.2416 12.4333 32.7616 13.26C32.2949 14.0733 32.0616 14.9867 32.0616 16C32.0616 17.0133 32.2949 17.9333 32.7616 18.76C33.2416 19.5733 33.8949 20.2133 34.7216 20.68C35.5616 21.1467 36.4949 21.38 37.5216 21.38Z" fill="white"/>
<path d="M6.30688 28.24C5.20021 28.24 4.12688 28.0933 3.08688 27.8C2.06021 27.4933 1.23354 27.1 0.606875 26.62L1.70688 24.18C2.30688 24.62 3.02021 24.9733 3.84688 25.24C4.67354 25.5067 5.50021 25.64 6.32688 25.64C7.24688 25.64 7.92688 25.5067 8.36688 25.24C8.80688 24.96 9.02688 24.5933 9.02688 24.14C9.02688 23.8067 8.89354 23.5333 8.62688 23.32C8.37354 23.0933 8.04021 22.9133 7.62688 22.78C7.22688 22.6467 6.68021 22.5 5.98688 22.34C4.92021 22.0867 4.04688 21.8333 3.36688 21.58C2.68688 21.3267 2.10021 20.92 1.60688 20.36C1.12688 19.8 0.886875 19.0533 0.886875 18.12C0.886875 17.3067 1.10688 16.5733 1.54688 15.92C1.98688 15.2533 2.64688 14.7267 3.52688 14.34C4.42021 13.9533 5.50688 13.76 6.78688 13.76C7.68021 13.76 8.55354 13.8667 9.40688 14.08C10.2602 14.2933 11.0069 14.6 11.6469 15L10.6469 17.46C9.35354 16.7267 8.06021 16.36 6.76688 16.36C5.86021 16.36 5.18688 16.5067 4.74688 16.8C4.32021 17.0933 4.10688 17.48 4.10688 17.96C4.10688 18.44 4.35354 18.8 4.84688 19.04C5.35354 19.2667 6.12021 19.4933 7.14688 19.72C8.21354 19.9733 9.08688 20.2267 9.76688 20.48C10.4469 20.7333 11.0269 21.1333 11.5069 21.68C12.0002 22.2267 12.2469 22.9667 12.2469 23.9C12.2469 24.7 12.0202 25.4333 11.5669 26.1C11.1269 26.7533 10.4602 27.2733 9.56688 27.66C8.67354 28.0467 7.58688 28.24 6.30688 28.24ZM27.3008 14V28H24.0608V22.26H17.7008V28H14.4608V14H17.7008V19.52H24.0608V14H27.3008Z" fill="#C02642"/>
<path d="M63.5216 23.16C62.1082 23.16 60.8349 22.8533 59.7016 22.24C58.5682 21.6133 57.6749 20.7533 57.0216 19.66C56.3816 18.5667 56.0616 17.3467 56.0616 16C56.0616 14.6533 56.3816 13.4333 57.0216 12.34C57.6749 11.2467 58.5682 10.3933 59.7016 9.78C60.8349 9.15333 62.1082 8.84 63.5216 8.84C64.9216 8.84 66.1882 9.15333 67.3216 9.78C68.4549 10.3933 69.3416 11.2467 69.9816 12.34C70.6216 13.42 70.9416 14.64 70.9416 16C70.9416 17.36 70.6216 18.5867 69.9816 19.68C69.3416 20.76 68.4549 21.6133 67.3216 22.24C66.1882 22.8533 64.9216 23.16 63.5216 23.16ZM63.5216 21.38C64.5482 21.38 65.4682 21.1467 66.2816 20.68C67.1082 20.2133 67.7549 19.5733 68.2216 18.76C68.7016 17.9333 68.9416 17.0133 68.9416 16C68.9416 14.9867 68.7016 14.0733 68.2216 13.26C67.7549 12.4333 67.1082 11.7867 66.2816 11.32C65.4682 10.8533 64.5482 10.62 63.5216 10.62C62.4949 10.62 61.5616 10.8533 60.7216 11.32C59.8949 11.7867 59.2416 12.4333 58.7616 13.26C58.2949 14.0733 58.0616 14.9867 58.0616 16C58.0616 17.0133 58.2949 17.9333 58.7616 18.76C59.2416 19.5733 59.8949 20.2133 60.7216 20.68C61.5616 21.1467 62.4949 21.38 63.5216 21.38Z" fill="white"/>
<path d="M85.6402 28L85.6202 19.6L81.5002 26.52H80.0402L75.9402 19.78V28H72.9002V14H75.5802L80.8202 22.7L85.9802 14H88.6402L88.6802 28H85.6402ZM102.842 25.4V28H92.0018V14H102.582V16.6H95.2218V19.64H101.722V22.16H95.2218V25.4H102.842Z" fill="#C02642"/>
<path d="M65.5072 17.06C65.3205 17.06 65.1605 16.9967 65.0272 16.87C64.8939 16.7367 64.8272 16.57 64.8272 16.37C64.8272 16.1767 64.8939 16.0167 65.0272 15.89C65.1605 15.7567 65.3205 15.69 65.5072 15.69C65.6939 15.69 65.8505 15.7533 65.9772 15.88C66.1039 16.0067 66.1672 16.17 66.1672 16.37C66.1672 16.57 66.1005 16.7367 65.9672 16.87C65.8405 16.9967 65.6872 17.06 65.5072 17.06Z" fill="white"/>
<path d="M58.4652 3.5L54.9552 14H53.3802L50.5152 5.615L47.6502 14H46.0452L42.5352 3.5H44.0802L46.9152 12.035L49.8702 3.5H51.2502L54.1452 12.08L57.0402 3.5H58.4652Z" fill="white"/>
<path d="M49.7581 17.805H46.1581V16.5H54.8431V17.805H51.2431V27H49.7581V17.805Z" fill="white"/>
<path d="M37.4994 19.04C37.0061 19.04 36.5594 18.9267 36.1594 18.7C35.7661 18.4733 35.4561 18.16 35.2294 17.76C35.0027 17.3533 34.8894 16.8967 34.8894 16.39C34.8894 15.8833 35.0027 15.43 35.2294 15.03C35.4561 14.6233 35.7661 14.3067 36.1594 14.08C36.5594 13.8533 37.0061 13.74 37.4994 13.74C37.9927 13.74 38.4361 13.8533 38.8294 14.08C39.2294 14.3067 39.5427 14.6233 39.7694 15.03C39.9961 15.43 40.1094 15.8833 40.1094 16.39C40.1094 16.8967 39.9961 17.3533 39.7694 17.76C39.5427 18.16 39.2294 18.4733 38.8294 18.7C38.4361 18.9267 37.9927 19.04 37.4994 19.04ZM37.4994 18.59C37.8994 18.59 38.2561 18.4967 38.5694 18.31C38.8894 18.1233 39.1394 17.8633 39.3194 17.53C39.5061 17.1967 39.5994 16.8167 39.5994 16.39C39.5994 15.9633 39.5061 15.5833 39.3194 15.25C39.1394 14.9167 38.8894 14.6567 38.5694 14.47C38.2561 14.2833 37.8994 14.19 37.4994 14.19C37.0994 14.19 36.7394 14.2833 36.4194 14.47C36.1061 14.6567 35.8561 14.9167 35.6694 15.25C35.4894 15.5833 35.3994 15.9633 35.3994 16.39C35.3994 16.8167 35.4894 17.1967 35.6694 17.53C35.8561 17.8633 36.1061 18.1233 36.4194 18.31C36.7394 18.4967 37.0994 18.59 37.4994 18.59Z" fill="white"/>
<path d="M64.4994 19.04C64.0061 19.04 63.5594 18.9267 63.1594 18.7C62.7661 18.4733 62.4561 18.16 62.2294 17.76C62.0027 17.3533 61.8894 16.8967 61.8894 16.39C61.8894 15.8833 62.0027 15.43 62.2294 15.03C62.4561 14.6233 62.7661 14.3067 63.1594 14.08C63.5594 13.8533 64.0061 13.74 64.4994 13.74C64.9927 13.74 65.4361 13.8533 65.8294 14.08C66.2294 14.3067 66.5427 14.6233 66.7694 15.03C66.9961 15.43 67.1094 15.8833 67.1094 16.39C67.1094 16.8967 66.9961 17.3533 66.7694 17.76C66.5427 18.16 66.2294 18.4733 65.8294 18.7C65.4361 18.9267 64.9927 19.04 64.4994 19.04ZM64.4994 18.59C64.8994 18.59 65.2561 18.4967 65.5694 18.31C65.8894 18.1233 66.1394 17.8633 66.3194 17.53C66.5061 17.1967 66.5994 16.8167 66.5994 16.39C66.5994 15.9633 66.5061 15.5833 66.3194 15.25C66.1394 14.9167 65.8894 14.6567 65.5694 14.47C65.2561 14.2833 64.8994 14.19 64.4994 14.19C64.0994 14.19 63.7394 14.2833 63.4194 14.47C63.1061 14.6567 62.8561 14.9167 62.6694 15.25C62.4894 15.5833 62.3994 15.9633 62.3994 16.39C62.3994 16.8167 62.4894 17.1967 62.6694 17.53C62.8561 17.8633 63.1061 18.1233 63.4194 18.31C63.7394 18.4967 64.0994 18.59 64.4994 18.59Z" fill="white"/>
<path d="M38.5072 17.06C38.3205 17.06 38.1605 16.9967 38.0272 16.87C37.8939 16.7367 37.8272 16.57 37.8272 16.37C37.8272 16.1767 37.8939 16.0167 38.0272 15.89C38.1605 15.7567 38.3205 15.69 38.5072 15.69C38.6939 15.69 38.8505 15.7533 38.9772 15.88C39.1039 16.0067 39.1672 16.17 39.1672 16.37C39.1672 16.57 39.1005 16.7367 38.9672 16.87C38.8405 16.9967 38.6872 17.06 38.5072 17.06Z" fill="white"/>
<path d="M43.2893 21.58H44.6793L41.3793 31H39.9893L43.2893 21.58ZM43.0635 30H48.0635V30.9H43.0635V30ZM48.0635 30H53.0635V30.9H48.0635V30ZM53.0635 30H58.0635V30.9H53.0635V30ZM59.6346 31L56.3346 21.58H57.7246L61.0246 31H59.6346Z" fill="white"/>
<path d="M43 32H48V32.9H43V32ZM48 32H53V32.9H48V32ZM53 32H58V32.9H53V32Z" fill="white"/>
<path d="M43.1552 42L39.8552 32.58H41.2452L44.5452 42H43.1552ZM45.5977 41H50.5977V41.9H45.5977V41ZM50.5977 41H55.5977V41.9H50.5977V41ZM59.7688 32.58H61.1588L57.8588 42H56.4688L59.7688 32.58Z" fill="white"/>
<path d="M48.5072 27.06C48.3205 27.06 48.1605 26.9967 48.0272 26.87C47.8939 26.7367 47.8272 26.57 47.8272 26.37C47.8272 26.1767 47.8939 26.0167 48.0272 25.89C48.1605 25.7567 48.3205 25.69 48.5072 25.69C48.6939 25.69 48.8505 25.7533 48.9772 25.88C49.1039 26.0067 49.1672 26.17 49.1672 26.37C49.1672 26.57 49.1005 26.7367 48.9672 26.87C48.8405 26.9967 48.6872 27.06 48.5072 27.06Z" fill="white"/>
<path d="M52.5072 27.06C52.3205 27.06 52.1605 26.9967 52.0272 26.87C51.8939 26.7367 51.8272 26.57 51.8272 26.37C51.8272 26.1767 51.8939 26.0167 52.0272 25.89C52.1605 25.7567 52.3205 25.69 52.5072 25.69C52.6939 25.69 52.8505 25.7533 52.9772 25.88C53.1039 26.0067 53.1672 26.17 53.1672 26.37C53.1672 26.57 53.1005 26.7367 52.9672 26.87C52.8405 26.9967 52.6872 27.06 52.5072 27.06Z" fill="white"/>
</svg>
